<svg width="256" height="256" viewBox="0 0 256 256" fill="none" xmlns="http://www.w3.org/2000/svg">
<g clip-path="url(#clip0_42_90)">
<path d="M225.85 128.024C225.85 74.0001 182.004 30.1541 127.98 30.1541C73.9571 30.1541 30.1111 74.0001 30.1111 128.024C30.1111 182.047 73.9571 225.893 127.981 225.893C182.004 225.893 225.85 182.047 225.85 128.023" fill="#00007D"/>
<path d="M197.195 87.475C197.195 71.652 184.353 58.809 168.53 58.809C152.707 58.809 139.864 71.652 139.864 87.475C139.864 103.298 152.707 116.14 168.53 116.14C184.353 116.14 197.195 103.298 197.195 87.475Z" fill="white"/>
<path d="M254.515 30.154C254.515 14.331 241.673 1.48901 225.85 1.48901C210.027 1.48901 197.185 14.331 197.185 30.154C197.185 45.978 210.027 58.82 225.85 58.82C241.673 58.82 254.515 45.978 254.515 30.154Z" fill="#00007D"/>
<path d="M61.25 113.756H69.809V169.41H101.506V176.936H61.25V113.756ZM116.946 130.874V161.453C116.946 163.804 117.309 165.726 118.036 167.216C119.376 169.969 121.875 171.346 125.533 171.346C130.783 171.346 134.357 168.936 136.256 164.12C137.289 161.539 137.806 157.998 137.806 153.496V130.874H145.546V176.936H138.236L138.322 170.141C137.336 171.89 136.112 173.366 134.648 174.571C131.751 176.979 128.234 178.184 124.098 178.184C117.655 178.184 113.266 175.99 110.932 171.603C109.666 169.253 109.032 166.113 109.032 162.184V130.874H116.946ZM182.88 149.06C184.657 148.831 185.847 148.087 186.45 146.827C186.792 146.137 186.965 145.144 186.965 143.848C186.965 141.201 186.027 139.279 184.153 138.085C182.278 136.89 179.596 136.293 176.106 136.293C172.071 136.293 169.209 137.388 167.521 139.578C166.576 140.788 165.961 142.59 165.675 144.981H158.45C158.593 139.287 160.433 135.327 163.97 133.098C167.506 130.87 171.609 129.756 176.277 129.756C181.689 129.756 186.086 130.788 189.465 132.852C192.815 134.917 194.491 138.128 194.491 142.487V169.025C194.491 169.827 194.656 170.473 194.986 170.959C195.315 171.446 196.011 171.689 197.072 171.689C197.416 171.689 197.802 171.668 198.232 171.625C198.693 171.578 199.153 171.514 199.609 171.432V177.152C198.405 177.495 197.487 177.71 196.857 177.796C196.226 177.882 195.365 177.926 194.277 177.926C191.61 177.926 189.674 176.979 188.47 175.087C187.839 174.084 187.395 172.665 187.137 170.83C185.559 172.895 183.294 174.686 180.341 176.206C177.388 177.724 174.133 178.484 170.578 178.484C166.305 178.484 162.815 177.188 160.106 174.597C157.396 172.006 156.041 168.762 156.041 164.867C156.041 160.601 157.375 157.293 160.041 154.945C162.708 152.597 166.205 151.15 170.535 150.605L182.88 149.06ZM166.578 169.973C168.213 171.261 170.148 171.904 172.385 171.904C175.108 171.904 177.745 171.274 180.298 170.015C184.599 167.925 186.749 164.505 186.749 159.752V153.526C185.805 154.13 184.589 154.633 183.101 155.036C181.613 155.439 180.154 155.726 178.723 155.897L174.044 156.499C171.24 156.871 169.131 157.458 167.718 158.259C165.324 159.603 164.128 161.749 164.128 164.695C164.128 166.927 164.944 168.685 166.578 169.973Z" fill="white"/>
<path d="M132.532 255.926L132.43 252.991C136.058 252.864 139.717 252.578 143.303 252.141L143.659 255.055C139.989 255.503 136.245 255.796 132.532 255.926ZM121.37 255.835C117.663 255.645 113.925 255.29 110.259 254.781L110.662 251.873C114.244 252.37 117.898 252.716 121.52 252.902L121.37 255.835ZM154.67 253.217L154.06 250.345C157.605 249.593 161.157 248.675 164.619 247.615L165.479 250.422C161.918 251.511 158.312 252.444 154.67 253.217ZM99.2791 252.763C95.6505 251.929 92.06 250.937 88.5181 249.79L89.423 246.997C92.883 248.118 96.3904 249.087 99.9351 249.901L99.2791 252.763ZM176 246.69L174.897 243.969C178.267 242.603 181.575 241.091 184.813 239.436L186.149 242.051C182.835 243.744 179.449 245.292 176 246.69ZM78.0551 245.881C74.627 244.425 71.2642 242.819 67.9761 241.07L69.3561 238.478C72.5561 240.182 75.8701 241.763 79.2031 243.178L78.0551 245.881ZM195.857 236.541L194.297 234.053C197.379 232.12 200.376 230.055 203.279 227.863L205.049 230.206C202.078 232.449 199.011 234.562 195.857 236.54M58.3571 235.396C55.2356 233.366 52.2034 231.201 49.2691 228.909L51.0771 226.595C53.9441 228.836 56.9069 230.951 59.9571 232.935L58.3571 235.396ZM213.657 223.097L211.691 220.917C214.383 218.49 217.001 215.917 219.471 213.268L221.618 215.271C219.078 217.993 216.422 220.604 213.657 223.097ZM40.7771 221.66C38.0538 219.121 35.4414 216.466 32.9471 213.702L35.1271 211.736C37.5647 214.437 40.1178 217.031 42.7791 219.512L40.7771 221.66ZM228.871 206.784L226.558 204.976C228.799 202.109 230.916 199.147 232.901 196.098L235.362 197.7C233.331 200.82 231.165 203.851 228.871 206.784ZM25.8341 205.098C23.5896 202.128 21.4749 199.062 19.4961 195.909L21.9831 194.349C23.9171 197.43 25.9837 200.425 28.1771 203.327L25.8341 205.098ZM241.04 188.083L238.449 186.703C240.154 183.503 241.737 180.19 243.154 176.858L245.856 178.007C244.398 181.434 242.791 184.796 241.04 188.083ZM13.9821 186.205C12.287 182.891 10.7372 179.506 9.33705 176.057L12.0571 174.953C13.4247 178.322 14.9388 181.63 16.5951 184.867L13.9821 186.205ZM249.77 167.545L246.978 166.638C248.101 163.179 249.072 159.672 249.888 156.128L252.749 156.786C251.914 160.414 250.92 164.004 249.77 167.545ZM5.60005 165.537C4.50928 161.977 3.57505 158.371 2.80005 154.73L5.67205 154.12C6.42922 157.677 7.34176 161.2 8.40705 164.677L5.60005 165.537ZM254.775 145.807L251.867 145.402C252.366 141.822 252.714 138.169 252.9 134.545L255.833 134.697C255.641 138.414 255.288 142.121 254.775 145.807ZM0.957055 143.721C0.505094 140.026 0.212822 136.314 0.0810547 132.594L3.01605 132.49C3.14305 136.117 3.43205 139.775 3.87105 143.363L0.957055 143.721ZM252.992 123.636C252.866 120.016 252.578 116.356 252.136 112.76L255.05 112.402C255.502 116.083 255.797 119.829 255.926 123.534L252.992 123.636ZM3.09805 121.581L0.166055 121.433C0.354055 117.725 0.706055 113.986 1.21305 110.321L4.12206 110.723C3.62606 114.305 3.28205 117.958 3.09805 121.581ZM250.335 102C249.578 98.4411 248.666 94.9168 247.603 91.437L250.411 90.579C251.499 94.1401 252.432 97.7468 253.207 101.389L250.335 102ZM6.08805 99.996L3.22605 99.34C4.05777 95.711 5.04805 92.1203 6.19405 88.578L8.98805 89.483C7.86835 92.9433 6.90075 96.451 6.08805 99.996ZM243.962 81.151C242.598 77.7777 241.088 74.4653 239.437 71.223L242.053 69.89C243.743 73.2084 245.288 76.5986 246.684 80.051L243.962 81.151ZM12.8021 79.26L10.0991 78.114C11.5535 74.685 13.1571 71.3211 14.9051 68.032L17.4971 69.411C15.7895 72.6241 14.223 75.9102 12.8021 79.26ZM23.0351 60.01L20.5731 58.41C22.6019 55.2875 24.7649 52.2544 27.0561 49.319L29.3701 51.126C27.1314 53.9943 25.0177 56.9591 23.0351 60.01ZM36.4511 42.824L34.3011 40.824C36.8385 38.0991 39.4923 35.485 42.2551 32.989L44.2231 35.169C41.5236 37.6077 38.9305 40.1618 36.4511 42.824ZM52.6281 28.214L50.8561 25.874C53.8251 23.6281 56.89 21.5118 60.0421 19.531L61.6041 22.017C58.5239 23.9524 55.5291 26.0193 52.6281 28.214ZM196.122 23.116L195.962 23.013L197.558 20.549L197.713 20.649L196.122 23.116ZM186.554 17.489C183.339 15.7865 180.051 14.2243 176.7 12.807L177.843 10.103C181.273 11.5533 184.637 13.1522 187.928 14.895L186.554 17.489ZM71.0831 16.625L69.743 14.012C73.0558 12.315 76.441 10.7636 79.8891 9.36199L80.9941 12.082C77.6259 13.4515 74.3191 14.9672 71.0831 16.625ZM166.475 9.00198C163.013 7.8833 159.504 6.91572 155.958 6.10198L156.614 3.23998C160.228 4.06798 163.85 5.06698 167.379 6.20798L166.475 9.00198ZM91.2701 8.42398L90.4081 5.61698C93.9674 4.5248 97.5729 3.5889 101.214 2.81198L101.826 5.68298C98.2691 6.44223 94.747 7.35677 91.2701 8.42398ZM145.228 4.12798C141.638 3.62798 137.984 3.28198 134.366 3.09798L134.516 0.165984C138.218 0.353984 141.959 0.708984 145.633 1.21998L145.228 4.12798ZM112.582 3.87898L112.222 0.964984C115.892 0.512984 119.636 0.216984 123.349 0.0839844L123.454 3.01798C119.825 3.14798 116.168 3.43798 112.582 3.87898Z" fill="#929292"/>
</g>
<defs>
<clipPath id="clip0_42_90">
<rect width="256" height="256" fill="white"/>
</clipPath>
</defs>
</svg>
