<svg width="224" height="256" viewBox="0 0 224 256" fill="none" xmlns="http://www.w3.org/2000/svg">
<g clip-path="url(#clip0_42_102)">
<path d="M207.953 52.162L127.317 4.28703C122.613 1.48146 117.237 0.000244141 111.76 0.000244141C106.283 0.000244141 100.907 1.48146 96.2029 4.28703L15.5499 52.162C10.781 55.0389 6.84086 59.1047 4.11508 63.9615C1.38929 68.8183 -0.0286919 74.2997 -6.32219e-05 79.869V175.603C-0.025917 181.17 1.39338 186.648 4.11904 191.502C6.84469 196.355 10.7834 200.419 15.5499 203.294L96.1859 251.153C100.891 253.957 106.266 255.437 111.743 255.437C117.221 255.437 122.596 253.957 127.301 251.153L207.937 203.294C212.709 200.419 216.652 196.354 219.381 191.497C222.11 186.64 223.53 181.158 223.503 175.587V79.869C223.532 74.2997 222.114 68.8183 219.388 63.9615C216.662 59.1047 212.722 55.0389 207.953 52.162Z" fill="white"/>
<path d="M208.412 52.277L127.598 4.29702C122.883 1.48499 117.496 0.000366211 112.006 0.000366211C106.516 0.000366211 101.129 1.48499 96.4139 4.29702L15.5839 52.277C10.8046 55.1602 6.8558 59.235 4.12406 64.1025C1.39231 68.97 -0.0287599 74.4634 -6.20977e-05 80.045V175.99C-0.025985 181.569 1.39641 187.059 4.12802 191.923C6.85963 196.788 10.8069 200.86 15.5839 203.742L96.3979 251.706C101.113 254.516 106.5 256 111.989 256C117.479 256 122.866 254.516 127.581 251.706L208.395 203.742C213.177 200.861 217.129 196.787 219.864 191.919C222.599 187.051 224.022 181.556 223.995 175.973V80.045C224.024 74.4635 222.603 68.9702 219.871 64.1027C217.14 59.2352 213.191 55.1604 208.412 52.277ZM99.2299 246.803L18.4159 198.839C14.4897 196.46 11.246 193.105 9.00027 189.101C6.7545 185.097 5.58308 180.58 5.59994 175.989V80.046C5.58169 75.4551 6.75253 70.9376 8.99844 66.9335C11.2444 62.9294 14.4888 59.575 18.4159 57.197L99.2299 9.21602C103.091 6.91269 107.502 5.69659 111.998 5.69659C116.493 5.69659 120.905 6.91269 124.766 9.21602L205.515 57.196C208.804 59.1879 211.618 61.8735 213.762 65.0653C215.906 68.2571 217.327 71.8782 217.927 75.676C215.24 69.964 209.204 68.394 202.165 72.44L125.769 119.756C116.238 125.307 109.215 131.57 109.199 143.059V237.272C109.199 244.149 111.966 248.599 116.238 249.91C114.839 250.167 113.42 250.302 111.998 250.315C107.504 250.312 103.094 249.099 99.2299 246.803Z" fill="#2F3A3E"/>
<path d="M187.007 185.06L166.921 197.073C166.658 197.179 166.431 197.359 166.268 197.591C166.104 197.823 166.012 198.097 166.001 198.381V203.661C166.001 204.307 166.436 204.565 166.969 204.258L187.363 191.858C187.607 191.674 187.795 191.425 187.903 191.139C188.012 190.853 188.037 190.543 187.976 190.243V185.609C187.96 185.011 187.492 184.754 187.007 185.06Z" fill="#3AB14A"/>
<path d="M144.263 140.832C144.909 140.509 145.442 140.832 145.458 141.752L145.522 148.76C147.937 147.662 150.632 147.335 153.24 147.823C153.741 147.953 153.95 148.631 153.757 149.438L152.223 155.59C152.107 156.054 151.867 156.478 151.529 156.817C151.41 156.934 151.274 157.032 151.125 157.107C150.943 157.206 150.732 157.241 150.528 157.205C147.985 156.642 145.323 157.069 143.084 158.399C141.48 159.122 140.112 160.283 139.138 161.748C138.164 163.213 137.623 164.924 137.578 166.683C137.578 169.912 139.193 170.8 144.828 170.897C152.272 171.027 155.501 174.272 155.582 181.78C155.494 185.652 154.565 189.459 152.859 192.936C151.152 196.413 148.709 199.477 145.7 201.915L145.83 208.793C145.824 209.214 145.713 209.626 145.507 209.993C145.301 210.36 145.006 210.669 144.65 210.893L140.582 213.233C139.936 213.556 139.402 213.233 139.387 212.329V205.564C135.899 207.017 132.363 207.356 130.102 206.452C129.682 206.29 129.489 205.661 129.666 204.934L131.136 198.718C131.247 198.226 131.5 197.777 131.862 197.426C131.977 197.316 132.108 197.223 132.25 197.151C132.354 197.104 132.467 197.08 132.581 197.08C132.695 197.08 132.808 197.104 132.912 197.151C135.79 197.931 138.86 197.543 141.453 196.07C143.289 195.185 144.848 193.814 145.961 192.106C147.074 190.399 147.698 188.419 147.767 186.382C147.767 182.894 145.845 181.441 141.308 181.408C135.447 181.408 130.005 180.278 129.892 171.72C129.959 168.028 130.841 164.396 132.477 161.085C134.113 157.774 136.462 154.866 139.354 152.57L139.064 145.53C139.063 145.104 139.17 144.685 139.377 144.312C139.583 143.939 139.881 143.625 140.242 143.4L144.263 140.832Z" fill="white"/>
</g>
<defs>
<clipPath id="clip0_42_102">
<rect width="224" height="256" fill="white"/>
</clipPath>
</defs>
</svg>
